<svg xmlns="http://www.w3.org/2000/svg" version="1.1" viewBox="0 0 2293 1896.75" width="2293" height="1896.75"><metadata /><defs><style class="style-fonts">
      </style></defs><rect x="0" y="0" width="2293" height="1896.75" fill="#ffffff" /><g stroke-linecap="round" transform="translate(24 184) rotate(0 125 77.5)"><path d="M0 0 L250 0 L250 155 L0 155" stroke="none" stroke-width="0" fill="#edf4ff" /><path d="M0 0 C59.84 0, 119.69 0, 250 0 M0 0 C73.82 0, 147.64 0, 250 0 M250 0 C250 56.56, 250 113.12, 250 155 M250 0 C250 53.41, 250 106.81, 250 155 M250 155 C154.68 155, 59.36 155, 0 155 M250 155 C176.74 155, 103.48 155, 0 155 M0 155 C0 118.24, 0 81.48, 0 0 M0 155 C0 98.9, 0 42.81, 0 0" stroke="#2758aa" stroke-width="2" fill="none" /></g><g stroke-linecap="round" transform="translate(309 184) rotate(0 125 82.5)"><path d="M0 0 L250 0 L250 165 L0 165" stroke="none" stroke-width="0" fill="#f3f0ff" /><path d="M0 0 C68.62 0, 137.24 0, 250 0 M0 0 C72.2 0, 144.4 0, 250 0 M250 0 C250 58.58, 250 117.16, 250 165 M250 0 C250 52.92, 250 105.85, 250 165 M250 165 C157.32 165, 64.63 165, 0 165 M250 165 C159.05 165, 68.11 165, 0 165 M0 165 C0 121.77, 0 78.55, 0 0 M0 165 C0 111.62, 0 58.24, 0 0" stroke="#6350a5" stroke-width="2" fill="none" /></g><g stroke-linecap="round" transform="translate(594 184) rotate(0 125 77.5)"><path d="M0 0 L250 0 L250 155 L0 155" stroke="none" stroke-width="0" fill="#edf4ff" /><path d="M0 0 C86.8 0, 173.6 0, 250 0 M0 0 C51.65 0, 103.31 0, 250 0 M250 0 C250 57.72, 250 115.45, 250 155 M250 0 C250 56.15, 250 112.31, 250 155 M250 155 C156.85 155, 63.7 155, 0 155 M250 155 C158.65 155, 67.29 155, 0 155 M0 155 C0 95.19, 0 35.38, 0 0 M0 155 C0 106.11, 0 57.22, 0 0" stroke="#2758aa" stroke-width="2" fill="none" /></g><g stroke-linecap="round" transform="translate(879 184) rotate(0 125 77.5)"><path d="M0 0 L250 0 L250 155 L0 155" stroke="none" stroke-width="0" fill="#edf4ff" /><path d="M0 0 C88.32 0, 176.63 0, 250 0 M0 0 C85.92 0, 171.85 0, 250 0 M250 0 C250 36.34, 250 72.67, 250 155 M250 0 C250 61.54, 250 123.07, 250 155 M250 155 C164.05 155, 78.09 155, 0 155 M250 155 C163.37 155, 76.75 155, 0 155 M0 155 C0 121.91, 0 88.83, 0 0 M0 155 C0 113.45, 0 71.91, 0 0" stroke="#2758aa" stroke-width="2" fill="none" /></g><g stroke-linecap="round" transform="translate(1164 184) rotate(0 125 77.5)"><path d="M0 0 L250 0 L250 155 L0 155" stroke="none" stroke-width="0" fill="#eaf8f4" /><path d="M0 0 C81.18 0, 162.36 0, 250 0 M0 0 C92.07 0, 184.13 0, 250 0 M250 0 C250 57.02, 250 114.05, 250 155 M250 0 C250 42.41, 250 84.81, 250 155 M250 155 C170.74 155, 91.48 155, 0 155 M250 155 C189.29 155, 128.58 155, 0 155 M0 155 C0 101.4, 0 47.81, 0 0 M0 155 C0 115.5, 0 76, 0 0" stroke="#18786d" stroke-width="2" fill="none" /></g><g stroke-linecap="round" transform="translate(1449 184) rotate(0 125 77.5)"><path d="M0 0 L250 0 L250 155 L0 155" stroke="none" stroke-width="0" fill="#f4f6f8" /><path d="M0 0 C63.62 0, 127.25 0, 250 0 M250 0 C250 55.96, 250 111.91, 250 155 M250 155 C186.58 155, 123.16 155, 0 155 M0 155 C0 114.23, 0 73.47, 0 0" stroke="#687587" stroke-width="2.5" fill="none" stroke-dasharray="8 10" /></g><g stroke-linecap="round" transform="translate(1734 184) rotate(0 125 77.5)"><path d="M0 0 L250 0 L250 155 L0 155" stroke="none" stroke-width="0" fill="#f4f6f8" /><path d="M0 0 C76.93 0, 153.87 0, 250 0 M0 0 C76.12 0, 152.24 0, 250 0 M250 0 C250 39.32, 250 78.64, 250 155 M250 0 C250 58.65, 250 117.3, 250 155 M250 155 C182.85 155, 115.7 155, 0 155 M250 155 C156.52 155, 63.05 155, 0 155 M0 155 C0 95.23, 0 35.46, 0 0 M0 155 C0 94.89, 0 34.77, 0 0" stroke="#687587" stroke-width="2" fill="none" /></g><g stroke-linecap="round" transform="translate(2019 184) rotate(0 125 77.5)"><path d="M0 0 L250 0 L250 155 L0 155" stroke="none" stroke-width="0" fill="#eaf8f4" /><path d="M0 0 C98.44 0, 196.88 0, 250 0 M0 0 C66.49 0, 132.98 0, 250 0 M250 0 C250 52.81, 250 105.62, 250 155 M250 0 C250 46.7, 250 93.4, 250 155 M250 155 C170.31 155, 90.62 155, 0 155 M250 155 C198.22 155, 146.44 155, 0 155 M0 155 C0 122.37, 0 89.74, 0 0 M0 155 C0 110.19, 0 65.37, 0 0" stroke="#18786d" stroke-width="2" fill="none" /></g><g stroke-linecap="round" transform="translate(1404 1029) rotate(0 417.5 57.5)"><path d="M0 0 L835 0 L835 115 L0 115" stroke="none" stroke-width="0" fill="#f4f6f8" /><path d="M0 0 C331.22 0, 662.43 0, 835 0 M835 0 C835 45.55, 835 91.11, 835 115 M835 115 C581.98 115, 328.95 115, 0 115 M0 115 C0 80.71, 0 46.43, 0 0" stroke="#687587" stroke-width="2.5" fill="none" stroke-dasharray="8 10" /></g><g stroke-linecap="round"><g transform="translate(149 339) rotate(0 0 695)"><path d="M0 0 C0 418.3, 0 836.6, 0 1390" stroke="#a8b1bf" stroke-width="2.5" fill="none" stroke-dasharray="8 10" /></g></g><mask /><g stroke-linecap="round"><g transform="translate(434 339) rotate(0 0 695)"><path d="M0 0 C0 351.09, 0 702.18, 0 1390" stroke="#a8b1bf" stroke-width="2.5" fill="none" stroke-dasharray="8 10" /></g></g><mask /><g stroke-linecap="round"><g transform="translate(719 339) rotate(0 0 695)"><path d="M0 0 C0 530.76, 0 1061.52, 0 1390" stroke="#a8b1bf" stroke-width="2.5" fill="none" stroke-dasharray="8 10" /></g></g><mask /><g stroke-linecap="round"><g transform="translate(1004 339) rotate(0 0 695)"><path d="M0 0 C0 496.09, 0 992.18, 0 1390" stroke="#a8b1bf" stroke-width="2.5" fill="none" stroke-dasharray="8 10" /></g></g><mask /><g stroke-linecap="round"><g transform="translate(1289 339) rotate(0 0 695)"><path d="M0 0 C0 373.43, 0 746.86, 0 1390" stroke="#a8b1bf" stroke-width="2.5" fill="none" stroke-dasharray="8 10" /></g></g><mask /><g stroke-linecap="round"><g transform="translate(1574 339) rotate(0 0 695)"><path d="M0 0 C0 340.3, 0 680.59, 0 1390" stroke="#a8b1bf" stroke-width="2.5" fill="none" stroke-dasharray="8 10" /></g></g><mask /><g stroke-linecap="round"><g transform="translate(1859 339) rotate(0 0 695)"><path d="M0 0 C0 533.73, 0 1067.45, 0 1390" stroke="#a8b1bf" stroke-width="2.5" fill="none" stroke-dasharray="8 10" /></g></g><mask /><g stroke-linecap="round"><g transform="translate(2144 339) rotate(0 0 695)"><path d="M0 0 C0 501.61, 0 1003.23, 0 1390" stroke="#a8b1bf" stroke-width="2.5" fill="none" stroke-dasharray="8 10" /></g></g><mask /><g stroke-linecap="round"><g transform="translate(149 409) rotate(0 142.5 0)"><path d="M0 0 C64.41 0, 128.82 0, 285 0 M0 0 C91.8 0, 183.6 0, 285 0" stroke="#2758aa" stroke-width="2" fill="none" /></g><g transform="translate(149 409) rotate(0 142.5 0)"><path d="M261.51 8.55 C266.82 6.62, 272.13 4.69, 285 0 M261.51 8.55 C269.07 5.8, 276.64 3.04, 285 0" stroke="#2758aa" stroke-width="2" fill="none" /></g><g transform="translate(149 409) rotate(0 142.5 0)"><path d="M261.51 -8.55 C266.82 -6.62, 272.13 -4.69, 285 0 M261.51 -8.55 C269.07 -5.8, 276.64 -3.04, 285 0" stroke="#2758aa" stroke-width="2" fill="none" /></g></g><mask /><g stroke-linecap="round"><g transform="translate(434 485) rotate(0 142.5 0)"><path d="M0 0 C73.16 0, 146.32 0, 285 0 M0 0 C92.74 0, 185.47 0, 285 0" stroke="#2758aa" stroke-width="2" fill="none" /></g><g transform="translate(434 485) rotate(0 142.5 0)"><path d="M261.51 8.55 C267.54 6.36, 273.57 4.16, 285 0 M261.51 8.55 C269.15 5.77, 276.8 2.99, 285 0" stroke="#2758aa" stroke-width="2" fill="none" /></g><g transform="translate(434 485) rotate(0 142.5 0)"><path d="M261.51 -8.55 C267.54 -6.36, 273.57 -4.16, 285 0 M261.51 -8.55 C269.15 -5.77, 276.8 -2.99, 285 0" stroke="#2758aa" stroke-width="2" fill="none" /></g></g><mask /><g stroke-linecap="round"><g transform="translate(719 561) rotate(0 142.5 0)"><path d="M0 0 C80.18 0, 160.35 0, 285 0 M0 0 C113.84 0, 227.68 0, 285 0" stroke="#2758aa" stroke-width="2" fill="none" /></g><g transform="translate(719 561) rotate(0 142.5 0)"><path d="M261.51 8.55 C268.12 6.15, 274.73 3.74, 285 0 M261.51 8.55 C270.89 5.14, 280.28 1.72, 285 0" stroke="#2758aa" stroke-width="2" fill="none" /></g><g transform="translate(719 561) rotate(0 142.5 0)"><path d="M261.51 -8.55 C268.12 -6.15, 274.73 -3.74, 285 0 M261.51 -8.55 C270.89 -5.14, 280.28 -1.72, 285 0" stroke="#2758aa" stroke-width="2" fill="none" /></g></g><mask /><g stroke-linecap="round"><g transform="translate(1004 637) rotate(0 -142.5 0)"><path d="M0 0 C-86.18 0, -172.36 0, -285 0" stroke="#2758aa" stroke-width="2.5" fill="none" stroke-dasharray="8 10" /></g><g transform="translate(1004 637) rotate(0 -142.5 0)"><path d="M-261.51 -8.55 C-268.61 -5.96, -275.71 -3.38, -285 0" stroke="#2758aa" stroke-width="2.5" fill="none" /></g><g transform="translate(1004 637) rotate(0 -142.5 0)"><path d="M-261.51 8.55 C-268.61 5.96, -275.71 3.38, -285 0" stroke="#2758aa" stroke-width="2.5" fill="none" /></g></g><mask /><g stroke-linecap="round"><g transform="translate(719 713) rotate(0 285 0)"><path d="M0 0 C161.8 0, 323.59 0, 570 0 M0 0 C200.49 0, 400.98 0, 570 0" stroke="#2758aa" stroke-width="2" fill="none" /></g><g transform="translate(719 713) rotate(0 285 0)"><path d="M546.51 8.55 C553.18 6.12, 559.84 3.7, 570 0 M546.51 8.55 C554.77 5.54, 563.03 2.54, 570 0" stroke="#2758aa" stroke-width="2" fill="none" /></g><g transform="translate(719 713) rotate(0 285 0)"><path d="M546.51 -8.55 C553.18 -6.12, 559.84 -3.7, 570 0 M546.51 -8.55 C554.77 -5.54, 563.03 -2.54, 570 0" stroke="#2758aa" stroke-width="2" fill="none" /></g></g><mask /><g stroke-linecap="round"><g transform="translate(1289 789) rotate(0 -285 0)"><path d="M0 0 C-226.59 0, -453.19 0, -570 0" stroke="#2758aa" stroke-width="2.5" fill="none" stroke-dasharray="8 10" /></g><g transform="translate(1289 789) rotate(0 -285 0)"><path d="M-546.51 -8.55 C-555.85 -5.15, -565.19 -1.75, -570 0" stroke="#2758aa" stroke-width="2.5" fill="none" /></g><g transform="translate(1289 789) rotate(0 -285 0)"><path d="M-546.51 8.55 C-555.85 5.15, -565.19 1.75, -570 0" stroke="#2758aa" stroke-width="2.5" fill="none" /></g></g><mask /><g stroke-linecap="round"><g transform="translate(719 865) rotate(0 -142.5 0)"><path d="M0 0 C-86.78 0, -173.56 0, -285 0" stroke="#2758aa" stroke-width="2.5" fill="none" stroke-dasharray="8 10" /></g><g transform="translate(719 865) rotate(0 -142.5 0)"><path d="M-261.51 -8.55 C-268.66 -5.95, -275.81 -3.34, -285 0" stroke="#2758aa" stroke-width="2.5" fill="none" /></g><g transform="translate(719 865) rotate(0 -142.5 0)"><path d="M-261.51 8.55 C-268.66 5.95, -275.81 3.34, -285 0" stroke="#2758aa" stroke-width="2.5" fill="none" /></g></g><mask /><g stroke-linecap="round"><g transform="translate(434 941) rotate(0 712.5 0)"><path d="M0 0 C293.96 0, 587.92 0, 1425 0 M0 0 C526.39 0, 1052.79 0, 1425 0" stroke="#2758aa" stroke-width="2" fill="none" /></g><g transform="translate(434 941) rotate(0 712.5 0)"><path d="M1401.51 8.55 C1406.35 6.79, 1411.2 5.02, 1425 0 M1401.51 8.55 C1410.19 5.39, 1418.86 2.23, 1425 0" stroke="#2758aa" stroke-width="2" fill="none" /></g><g transform="translate(434 941) rotate(0 712.5 0)"><path d="M1401.51 -8.55 C1406.35 -6.79, 1411.2 -5.02, 1425 0 M1401.51 -8.55 C1410.19 -5.39, 1418.86 -2.23, 1425 0" stroke="#2758aa" stroke-width="2" fill="none" /></g></g><mask /><g stroke-linecap="round"><g transform="translate(1859 1017) rotate(0 -712.5 0)"><path d="M0 0 C-328.23 0, -656.45 0, -1425 0" stroke="#2758aa" stroke-width="2.5" fill="none" stroke-dasharray="8 10" /></g><g transform="translate(1859 1017) rotate(0 -712.5 0)"><path d="M-1401.51 -8.55 C-1406.92 -6.58, -1412.33 -4.61, -1425 0" stroke="#2758aa" stroke-width="2.5" fill="none" /></g><g transform="translate(1859 1017) rotate(0 -712.5 0)"><path d="M-1401.51 8.55 C-1406.92 6.58, -1412.33 4.61, -1425 0" stroke="#2758aa" stroke-width="2.5" fill="none" /></g></g><mask /><g stroke-linecap="round"><g transform="translate(434 1093) rotate(0 142.5 0)"><path d="M0 0 C87.57 0, 175.14 0, 285 0 M0 0 C86.79 0, 173.59 0, 285 0" stroke="#2758aa" stroke-width="2" fill="none" /></g><g transform="translate(434 1093) rotate(0 142.5 0)"><path d="M261.51 8.55 C268.73 5.92, 275.94 3.3, 285 0 M261.51 8.55 C268.66 5.95, 275.82 3.34, 285 0" stroke="#2758aa" stroke-width="2" fill="none" /></g><g transform="translate(434 1093) rotate(0 142.5 0)"><path d="M261.51 -8.55 C268.73 -5.92, 275.94 -3.3, 285 0 M261.51 -8.55 C268.66 -5.95, 275.82 -3.34, 285 0" stroke="#2758aa" stroke-width="2" fill="none" /></g></g><mask /><g stroke-linecap="round"><g transform="translate(719 1169) rotate(0 427.5 0)"><path d="M0 0 C201.5 0, 403 0, 855 0 M0 0 C313.32 0, 626.63 0, 855 0" stroke="#2758aa" stroke-width="2" fill="none" /></g><g transform="translate(719 1169) rotate(0 427.5 0)"><path d="M831.51 8.55 C837.04 6.54, 842.58 4.52, 855 0 M831.51 8.55 C840.12 5.42, 848.73 2.28, 855 0" stroke="#2758aa" stroke-width="2" fill="none" /></g><g transform="translate(719 1169) rotate(0 427.5 0)"><path d="M831.51 -8.55 C837.04 -6.54, 842.58 -4.52, 855 0 M831.51 -8.55 C840.12 -5.42, 848.73 -2.28, 855 0" stroke="#2758aa" stroke-width="2" fill="none" /></g></g><mask /><g stroke-linecap="round"><g transform="translate(1574 1245) rotate(0 -427.5 0)"><path d="M0 0 C-273.25 0, -546.5 0, -855 0" stroke="#2758aa" stroke-width="2.5" fill="none" stroke-dasharray="8 10" /></g><g transform="translate(1574 1245) rotate(0 -427.5 0)"><path d="M-831.51 -8.55 C-839.02 -5.82, -846.52 -3.09, -855 0" stroke="#2758aa" stroke-width="2.5" fill="none" /></g><g transform="translate(1574 1245) rotate(0 -427.5 0)"><path d="M-831.51 8.55 C-839.02 5.82, -846.52 3.09, -855 0" stroke="#2758aa" stroke-width="2.5" fill="none" /></g></g><mask /><g stroke-linecap="round"><g transform="translate(719 1321) rotate(0 -142.5 0)"><path d="M0 0 C-106.78 0, -213.57 0, -285 0" stroke="#2758aa" stroke-width="2.5" fill="none" stroke-dasharray="8 10" /></g><g transform="translate(719 1321) rotate(0 -142.5 0)"><path d="M-261.51 -8.55 C-270.31 -5.35, -279.11 -2.14, -285 0" stroke="#2758aa" stroke-width="2.5" fill="none" /></g><g transform="translate(719 1321) rotate(0 -142.5 0)"><path d="M-261.51 8.55 C-270.31 5.35, -279.11 2.14, -285 0" stroke="#2758aa" stroke-width="2.5" fill="none" /></g></g><mask /><g stroke-linecap="round"><g transform="translate(434 1397) rotate(0 712.5 0)"><path d="M0 0 C453.23 0, 906.47 0, 1425 0 M0 0 C545.38 0, 1090.75 0, 1425 0" stroke="#2758aa" stroke-width="2" fill="none" /></g><g transform="translate(434 1397) rotate(0 712.5 0)"><path d="M1401.51 8.55 C1408.98 5.83, 1416.45 3.11, 1425 0 M1401.51 8.55 C1410.5 5.28, 1419.49 2.01, 1425 0" stroke="#2758aa" stroke-width="2" fill="none" /></g><g transform="translate(434 1397) rotate(0 712.5 0)"><path d="M1401.51 -8.55 C1408.98 -5.83, 1416.45 -3.11, 1425 0 M1401.51 -8.55 C1410.5 -5.28, 1419.49 -2.01, 1425 0" stroke="#2758aa" stroke-width="2" fill="none" /></g></g><mask /><g stroke-linecap="round"><g transform="translate(1859 1473) rotate(0 -712.5 0)"><path d="M0 0 C-535.56 0, -1071.12 0, -1425 0" stroke="#2758aa" stroke-width="2.5" fill="none" stroke-dasharray="8 10" /></g><g transform="translate(1859 1473) rotate(0 -712.5 0)"><path d="M-1401.51 -8.55 C-1410.34 -5.34, -1419.17 -2.12, -1425 0" stroke="#2758aa" stroke-width="2.5" fill="none" /></g><g transform="translate(1859 1473) rotate(0 -712.5 0)"><path d="M-1401.51 8.55 C-1410.34 5.34, -1419.17 2.12, -1425 0" stroke="#2758aa" stroke-width="2.5" fill="none" /></g></g><mask /><g stroke-linecap="round"><g transform="translate(434 1549) rotate(0 855 0)"><path d="M0 0 C672.42 0, 1344.85 0, 1710 0 M0 0 C652.84 0, 1305.69 0, 1710 0" stroke="#6350a5" stroke-width="2" fill="none" /></g><g transform="translate(434 1549) rotate(0 855 0)"><path d="M1686.51 8.55 C1695.75 5.19, 1704.98 1.83, 1710 0 M1686.51 8.55 C1695.48 5.29, 1704.45 2.02, 1710 0" stroke="#6350a5" stroke-width="2" fill="none" /></g><g transform="translate(434 1549) rotate(0 855 0)"><path d="M1686.51 -8.55 C1695.75 -5.19, 1704.98 -1.83, 1710 0 M1686.51 -8.55 C1695.48 -5.29, 1704.45 -2.02, 1710 0" stroke="#6350a5" stroke-width="2" fill="none" /></g></g><mask /><g stroke-linecap="round"><g transform="translate(434 1625) rotate(0 -142.5 0)"><path d="M0 0 C-75.07 0, -150.15 0, -285 0" stroke="#2758aa" stroke-width="2.5" fill="none" stroke-dasharray="8 10" /></g><g transform="translate(434 1625) rotate(0 -142.5 0)"><path d="M-261.51 -8.55 C-267.7 -6.3, -273.88 -4.05, -285 0" stroke="#2758aa" stroke-width="2.5" fill="none" /></g><g transform="translate(434 1625) rotate(0 -142.5 0)"><path d="M-261.51 8.55 C-267.7 6.3, -273.88 4.05, -285 0" stroke="#2758aa" stroke-width="2.5" fill="none" /></g></g><mask /><g transform="translate(24 24) rotate(0 1120 25)"><text x="0" y="35.80078125" font-family="Helvetica, Segoe UI Emoji" font-size="40px" fill="#17233b" text-anchor="start" style="white-space: pre;" direction="ltr" dominant-baseline="alphabetic">02  From question to answer</text></g><g transform="translate(24 89) rotate(0 1120 14.375)"><text x="0" y="20.58544921875" font-family="Helvetica, Segoe UI Emoji" font-size="23px" fill="#536176" text-anchor="start" style="white-space: pre;" direction="ltr" dominant-baseline="alphabetic">Selected target · one role owns execution, automatic balanced routing and conversation lifecycle.</text></g><g transform="translate(44 199) rotate(0 105 11.25)"><text x="0" y="16.1103515625" font-family="Helvetica, Segoe UI Emoji" font-size="18px" fill="#2758aa" text-anchor="start" style="white-space: pre;" direction="ltr" dominant-baseline="alphabetic">CONTAINER</text></g><g transform="translate(44 232) rotate(0 105 14.375)"><text x="0" y="20.58544921875" font-family="Helvetica, Segoe UI Emoji" font-size="23px" fill="#17233b" text-anchor="start" style="white-space: pre;" direction="ltr" dominant-baseline="alphabetic">UI</text></g><g transform="translate(44 270) rotate(0 105 13.125)"><text x="0" y="18.79541015625" font-family="Helvetica, Segoe UI Emoji" font-size="21px" fill="#17233b" text-anchor="start" style="white-space: pre;" direction="ltr" dominant-baseline="alphabetic">CopilotKit / AG-UI</text></g><g transform="translate(329 199) rotate(0 105 11.25)"><text x="0" y="16.1103515625" font-family="Helvetica, Segoe UI Emoji" font-size="18px" fill="#6350a5" text-anchor="start" style="white-space: pre;" direction="ltr" dominant-baseline="alphabetic">CONTAINER</text></g><g transform="translate(329 229) rotate(0 105 14.375)"><text x="0" y="20.58544921875" font-family="Helvetica, Segoe UI Emoji" font-size="23px" fill="#17233b" text-anchor="start" style="white-space: pre;" direction="ltr" dominant-baseline="alphabetic">Selected role</text></g><g transform="translate(329 266) rotate(0 105 39.375)"><text x="0" y="18.79541015625" font-family="Helvetica, Segoe UI Emoji" font-size="21px" fill="#17233b" text-anchor="start" style="white-space: pre;" direction="ltr" dominant-baseline="alphabetic">Coordination +</text><text x="0" y="45.04541015625" font-family="Helvetica, Segoe UI Emoji" font-size="21px" fill="#17233b" text-anchor="start" style="white-space: pre;" direction="ltr" dominant-baseline="alphabetic">Deep Agent</text><text x="0" y="71.29541015625" font-family="Helvetica, Segoe UI Emoji" font-size="21px" fill="#17233b" text-anchor="start" style="white-space: pre;" direction="ltr" dominant-baseline="alphabetic">Automatic routing</text></g><g transform="translate(614 199) rotate(0 105 11.25)"><text x="0" y="16.1103515625" font-family="Helvetica, Segoe UI Emoji" font-size="18px" fill="#2758aa" text-anchor="start" style="white-space: pre;" direction="ltr" dominant-baseline="alphabetic">CONTAINER</text></g><g transform="translate(614 232) rotate(0 105 14.375)"><text x="0" y="20.58544921875" font-family="Helvetica, Segoe UI Emoji" font-size="23px" fill="#17233b" text-anchor="start" style="white-space: pre;" direction="ltr" dominant-baseline="alphabetic">Retrieval MCP</text></g><g transform="translate(614 270) rotate(0 105 13.125)"><text x="0" y="18.79541015625" font-family="Helvetica, Segoe UI Emoji" font-size="21px" fill="#17233b" text-anchor="start" style="white-space: pre;" direction="ltr" dominant-baseline="alphabetic">search / read</text></g><g transform="translate(899 199) rotate(0 105 11.25)"><text x="0" y="16.1103515625" font-family="Helvetica, Segoe UI Emoji" font-size="18px" fill="#2758aa" text-anchor="start" style="white-space: pre;" direction="ltr" dominant-baseline="alphabetic">CONTAINER</text></g><g transform="translate(899 232) rotate(0 105 14.375)"><text x="0" y="20.58544921875" font-family="Helvetica, Segoe UI Emoji" font-size="23px" fill="#17233b" text-anchor="start" style="white-space: pre;" direction="ltr" dominant-baseline="alphabetic">Shared BGE server</text></g><g transform="translate(899 270) rotate(0 105 26.25)"><text x="0" y="18.79541015625" font-family="Helvetica, Segoe UI Emoji" font-size="21px" fill="#17233b" text-anchor="start" style="white-space: pre;" direction="ltr" dominant-baseline="alphabetic">Query +</text><text x="0" y="45.04541015625" font-family="Helvetica, Segoe UI Emoji" font-size="21px" fill="#17233b" text-anchor="start" style="white-space: pre;" direction="ltr" dominant-baseline="alphabetic">document encoding</text></g><g transform="translate(1184 199) rotate(0 105 11.25)"><text x="0" y="16.1103515625" font-family="Helvetica, Segoe UI Emoji" font-size="18px" fill="#18786d" text-anchor="start" style="white-space: pre;" direction="ltr" dominant-baseline="alphabetic">CONTAINER</text></g><g transform="translate(1184 232) rotate(0 105 14.375)"><text x="0" y="20.58544921875" font-family="Helvetica, Segoe UI Emoji" font-size="23px" fill="#17233b" text-anchor="start" style="white-space: pre;" direction="ltr" dominant-baseline="alphabetic">Qdrant</text></g><g transform="translate(1184 270) rotate(0 105 13.125)"><text x="0" y="18.79541015625" font-family="Helvetica, Segoe UI Emoji" font-size="21px" fill="#17233b" text-anchor="start" style="white-space: pre;" direction="ltr" dominant-baseline="alphabetic">Search index</text></g><g transform="translate(1469 199) rotate(0 105 11.25)"><text x="0" y="16.1103515625" font-family="Helvetica, Segoe UI Emoji" font-size="18px" fill="#687587" text-anchor="start" style="white-space: pre;" direction="ltr" dominant-baseline="alphabetic">STORAGE</text></g><g transform="translate(1469 232) rotate(0 105 14.375)"><text x="0" y="20.58544921875" font-family="Helvetica, Segoe UI Emoji" font-size="23px" fill="#17233b" text-anchor="start" style="white-space: pre;" direction="ltr" dominant-baseline="alphabetic">Prepared text</text></g><g transform="translate(1469 270) rotate(0 102 26.5)"><text x="0" y="18.79541015625" font-family="Helvetica, Segoe UI Emoji" font-size="21px" fill="#17233b" text-anchor="start" style="white-space: pre;" direction="ltr" dominant-baseline="alphabetic">GCS bucket +</text><text x="0" y="45.04541015625" font-family="Helvetica, Segoe UI Emoji" font-size="21px" fill="#17233b" text-anchor="start" style="white-space: pre;" direction="ltr" dominant-baseline="alphabetic">release pointer</text></g><g transform="translate(1754 199) rotate(0 105 11.25)"><text x="0" y="16.1103515625" font-family="Helvetica, Segoe UI Emoji" font-size="18px" fill="#687587" text-anchor="start" style="white-space: pre;" direction="ltr" dominant-baseline="alphabetic">EXTERNAL API</text></g><g transform="translate(1754 229) rotate(0 105 14.375)"><text x="0" y="20.58544921875" font-family="Helvetica, Segoe UI Emoji" font-size="23px" fill="#17233b" text-anchor="start" style="white-space: pre;" direction="ltr" dominant-baseline="alphabetic">Inference providers</text></g><g transform="translate(1754 267) rotate(0 105 33.75)"><text x="0" y="16.1103515625" font-family="Helvetica, Segoe UI Emoji" font-size="18px" fill="#17233b" text-anchor="start" style="white-space: pre;" direction="ltr" dominant-baseline="alphabetic">Ollama Cloud</text><text x="0" y="38.6103515625" font-family="Helvetica, Segoe UI Emoji" font-size="18px" fill="#17233b" text-anchor="start" style="white-space: pre;" direction="ltr" dominant-baseline="alphabetic">Fireworks.ai</text></g><g transform="translate(2039 199) rotate(0 105 11.25)"><text x="0" y="16.1103515625" font-family="Helvetica, Segoe UI Emoji" font-size="18px" fill="#18786d" text-anchor="start" style="white-space: pre;" direction="ltr" dominant-baseline="alphabetic">CONTAINER</text></g><g transform="translate(2039 232) rotate(0 105 14.375)"><text x="0" y="20.58544921875" font-family="Helvetica, Segoe UI Emoji" font-size="23px" fill="#17233b" text-anchor="start" style="white-space: pre;" direction="ltr" dominant-baseline="alphabetic">PostgreSQL</text></g><g transform="translate(2039 270) rotate(0 105 26.25)"><text x="0" y="18.79541015625" font-family="Helvetica, Segoe UI Emoji" font-size="21px" fill="#17233b" text-anchor="start" style="white-space: pre;" direction="ltr" dominant-baseline="alphabetic">Role/thread</text><text x="0" y="45.04541015625" font-family="Helvetica, Segoe UI Emoji" font-size="21px" fill="#17233b" text-anchor="start" style="white-space: pre;" direction="ltr" dominant-baseline="alphabetic">checkpoints</text></g><g transform="translate(159 377) rotate(0 132.5 13.75)"><text x="132.5" y="19.6904296875" font-family="Helvetica, Segoe UI Emoji" font-size="22px" fill="#17233b" text-anchor="middle" style="white-space: pre;" direction="ltr" dominant-baseline="alphabetic">1  Question + thread</text></g><g transform="translate(444 453) rotate(0 132.5 13.75)"><text x="132.5" y="19.6904296875" font-family="Helvetica, Segoe UI Emoji" font-size="22px" fill="#17233b" text-anchor="middle" style="white-space: pre;" direction="ltr" dominant-baseline="alphabetic">2  search(query)</text></g><g transform="translate(729 529) rotate(0 132.5 13.75)"><text x="132.5" y="19.6904296875" font-family="Helvetica, Segoe UI Emoji" font-size="22px" fill="#17233b" text-anchor="middle" style="white-space: pre;" direction="ltr" dominant-baseline="alphabetic">3  Encode query</text></g><g transform="translate(729 605) rotate(0 132.5 13.75)"><text x="132.5" y="19.6904296875" font-family="Helvetica, Segoe UI Emoji" font-size="22px" fill="#17233b" text-anchor="middle" style="white-space: pre;" direction="ltr" dominant-baseline="alphabetic">Query vector</text></g><g transform="translate(729 681) rotate(0 275 13.75)"><text x="275" y="19.6904296875" font-family="Helvetica, Segoe UI Emoji" font-size="22px" fill="#17233b" text-anchor="middle" style="white-space: pre;" direction="ltr" dominant-baseline="alphabetic">4  Hybrid search</text></g><g transform="translate(729 757) rotate(0 275 13.75)"><text x="275" y="19.6904296875" font-family="Helvetica, Segoe UI Emoji" font-size="22px" fill="#17233b" text-anchor="middle" style="white-space: pre;" direction="ltr" dominant-baseline="alphabetic">Passages + IDs</text></g><g transform="translate(444 833) rotate(0 132.5 13.75)"><text x="132.5" y="19.6904296875" font-family="Helvetica, Segoe UI Emoji" font-size="22px" fill="#17233b" text-anchor="middle" style="white-space: pre;" direction="ltr" dominant-baseline="alphabetic">5  Grounding evidence</text></g><g transform="translate(444 909) rotate(0 702.5 13.75)"><text x="702.5" y="19.6904296875" font-family="Helvetica, Segoe UI Emoji" font-size="22px" fill="#17233b" text-anchor="middle" style="white-space: pre;" direction="ltr" dominant-baseline="alphabetic">6  Prompt + bounded context</text></g><g transform="translate(444 985) rotate(0 702.5 13.75)"><text x="702.5" y="19.6904296875" font-family="Helvetica, Segoe UI Emoji" font-size="22px" fill="#17233b" text-anchor="middle" style="white-space: pre;" direction="ltr" dominant-baseline="alphabetic">Answer or tool call</text></g><g transform="translate(444 1061) rotate(0 132.5 13.75)"><text x="132.5" y="19.6904296875" font-family="Helvetica, Segoe UI Emoji" font-size="22px" fill="#17233b" text-anchor="middle" style="white-space: pre;" direction="ltr" dominant-baseline="alphabetic">7  Optional tools</text></g><g transform="translate(729 1137) rotate(0 417.5 13.75)"><text x="417.5" y="19.6904296875" font-family="Helvetica, Segoe UI Emoji" font-size="22px" fill="#17233b" text-anchor="middle" style="white-space: pre;" direction="ltr" dominant-baseline="alphabetic">Read full prepared text</text></g><g transform="translate(729 1213) rotate(0 417.5 13.75)"><text x="417.5" y="19.6904296875" font-family="Helvetica, Segoe UI Emoji" font-size="22px" fill="#17233b" text-anchor="middle" style="white-space: pre;" direction="ltr" dominant-baseline="alphabetic">Document text</text></g><g transform="translate(444 1289) rotate(0 132.5 13.75)"><text x="132.5" y="19.6904296875" font-family="Helvetica, Segoe UI Emoji" font-size="22px" fill="#17233b" text-anchor="middle" style="white-space: pre;" direction="ltr" dominant-baseline="alphabetic">Additional evidence</text></g><g transform="translate(444 1365) rotate(0 702.5 13.75)"><text x="702.5" y="19.6904296875" font-family="Helvetica, Segoe UI Emoji" font-size="22px" fill="#17233b" text-anchor="middle" style="white-space: pre;" direction="ltr" dominant-baseline="alphabetic">8  Continue with tool result</text></g><g transform="translate(444 1441) rotate(0 702.5 13.75)"><text x="702.5" y="19.6904296875" font-family="Helvetica, Segoe UI Emoji" font-size="22px" fill="#17233b" text-anchor="middle" style="white-space: pre;" direction="ltr" dominant-baseline="alphabetic">Final answer</text></g><g transform="translate(444 1517) rotate(0 845 13.75)"><text x="845" y="19.6904296875" font-family="Helvetica, Segoe UI Emoji" font-size="22px" fill="#17233b" text-anchor="middle" style="white-space: pre;" direction="ltr" dominant-baseline="alphabetic">9  Conversation checkpoints (throughout the lifecycle)</text></g><g transform="translate(159 1593) rotate(0 132.5 13.75)"><text x="132.5" y="19.6904296875" font-family="Helvetica, Segoe UI Emoji" font-size="22px" fill="#17233b" text-anchor="middle" style="white-space: pre;" direction="ltr" dominant-baseline="alphabetic">10  Plain answer</text></g><g transform="translate(1424 1049) rotate(0 397.5 13.75)"><text x="0" y="19.6904296875" font-family="Helvetica, Segoe UI Emoji" font-size="22px" fill="#17233b" text-anchor="start" style="white-space: pre;" direction="ltr" dominant-baseline="alphabetic">The role runtime executes bounded calls before finalizing.</text></g><g transform="translate(24 1769) rotate(0 624.5 28.75)"><text x="0" y="20.58544921875" font-family="Helvetica, Segoe UI Emoji" font-size="23px" fill="#536176" text-anchor="start" style="white-space: pre;" direction="ltr" dominant-baseline="alphabetic">Implemented: Knowledge Assistant, shared HTTP BGE and release-pinned retrieval.</text><text x="0" y="49.33544921875" font-family="Helvetica, Segoe UI Emoji" font-size="23px" fill="#536176" text-anchor="start" style="white-space: pre;" direction="ltr" dominant-baseline="alphabetic">Remaining: Research / Interview runtimes, role isolation and balanced provider routing.</text></g><g transform="translate(24 1844) rotate(0 1120 14.375)"><text x="0" y="20.58544921875" font-family="Helvetica, Segoe UI Emoji" font-size="23px" fill="#18786d" text-anchor="start" style="white-space: pre;" direction="ltr" dominant-baseline="alphabetic">BGE also serves manual batch embedding: bound batch concurrency to preserve interactive query capacity.</text></g></svg>