<svg xmlns="http://www.w3.org/2000/svg" version="1.1" viewBox="0 0 1978 1896" width="1978" height="1896"><metadata /><defs><style class="style-fonts">
      </style></defs><rect x="0" y="0" width="1978" height="1896" fill="#ffffff" /><g stroke-linecap="round" transform="translate(24 184) rotate(0 965 665)"><path d="M0 0 L1930 0 L1930 1330 L0 1330" stroke="none" stroke-width="0" fill="#fcfdff" /><path d="M0 0 C680.2 0, 1360.41 0, 1930 0 M1930 0 C1930 305.25, 1930 610.5, 1930 1330 M1930 1330 C1524.1 1330, 1118.19 1330, 0 1330 M0 1330 C0 844.74, 0 359.49, 0 0" stroke="#c6ced9" stroke-width="2.5" fill="none" stroke-dasharray="8 10" /></g><g stroke-linecap="round" transform="translate(54 314) rotate(0 212.5 80)"><path d="M0 0 L425 0 L425 160 L0 160" stroke="none" stroke-width="0" fill="#edf4ff" /><path d="M0 0 C103.76 0, 207.52 0, 425 0 M0 0 C104.32 0, 208.64 0, 425 0 M425 0 C425 33.19, 425 66.38, 425 160 M425 0 C425 32.03, 425 64.06, 425 160 M425 160 C313.8 160, 202.61 160, 0 160 M425 160 C267.67 160, 110.33 160, 0 160 M0 160 C0 102.94, 0 45.89, 0 0 M0 160 C0 112.39, 0 64.78, 0 0" stroke="#2758aa" stroke-width="2" fill="none" /></g><g stroke-linecap="round" transform="translate(534 314) rotate(0 212.5 80)"><path d="M0 0 L425 0 L425 160 L0 160" stroke="none" stroke-width="0" fill="#f3f0ff" /><path d="M0 0 C157.86 0, 315.72 0, 425 0 M0 0 C133.55 0, 267.09 0, 425 0 M425 0 C425 48.42, 425 96.85, 425 160 M425 0 C425 54.48, 425 108.96, 425 160 M425 160 C311.38 160, 197.77 160, 0 160 M425 160 C278.46 160, 131.91 160, 0 160 M0 160 C0 111.92, 0 63.84, 0 0 M0 160 C0 115.25, 0 70.51, 0 0" stroke="#6350a5" stroke-width="2" fill="none" /></g><g stroke-linecap="round" transform="translate(1014 314) rotate(0 212.5 80)"><path d="M0 0 L425 0 L425 160 L0 160" stroke="none" stroke-width="0" fill="#f3f0ff" /><path d="M0 0 C127.99 0, 255.98 0, 425 0 M0 0 C165.82 0, 331.63 0, 425 0 M425 0 C425 61.24, 425 122.49, 425 160 M425 0 C425 33.26, 425 66.51, 425 160 M425 160 C325.86 160, 226.73 160, 0 160 M425 160 C286.82 160, 148.65 160, 0 160 M0 160 C0 109.47, 0 58.93, 0 0 M0 160 C0 103.68, 0 47.36, 0 0" stroke="#6350a5" stroke-width="2" fill="none" /></g><g stroke-linecap="round" transform="translate(1494 314) rotate(0 212.5 80)"><path d="M0 0 L425 0 L425 160 L0 160" stroke="none" stroke-width="0" fill="#f3f0ff" /><path d="M0 0 C107.07 0, 214.14 0, 425 0 M0 0 C138.31 0, 276.61 0, 425 0 M425 0 C425 37.38, 425 74.76, 425 160 M425 0 C425 57.3, 425 114.59, 425 160 M425 160 C331.03 160, 237.06 160, 0 160 M425 160 C331.63 160, 238.26 160, 0 160 M0 160 C0 108.16, 0 56.33, 0 0 M0 160 C0 106.37, 0 52.73, 0 0" stroke="#6350a5" stroke-width="2" fill="none" /></g><g stroke-linecap="round" transform="translate(54 589) rotate(0 212.5 82.5)"><path d="M0 0 L425 0 L425 165 L0 165" stroke="none" stroke-width="0" fill="#edf4ff" /><path d="M0 0 C105.34 0, 210.67 0, 425 0 M0 0 C138.74 0, 277.48 0, 425 0 M425 0 C425 33.73, 425 67.46, 425 165 M425 0 C425 33.93, 425 67.85, 425 165 M425 165 C270.02 165, 115.04 165, 0 165 M425 165 C259.04 165, 93.09 165, 0 165 M0 165 C0 108.49, 0 51.97, 0 0 M0 165 C0 104.52, 0 44.03, 0 0" stroke="#2758aa" stroke-width="2" fill="none" /></g><g stroke-linecap="round" transform="translate(534 589) rotate(0 212.5 82.5)"><path d="M0 0 L425 0 L425 165 L0 165" stroke="none" stroke-width="0" fill="#edf4ff" /><path d="M0 0 C124.95 0, 249.91 0, 425 0 M0 0 C156.91 0, 313.82 0, 425 0 M425 0 C425 59.12, 425 118.23, 425 165 M425 0 C425 42.86, 425 85.72, 425 165 M425 165 C268.85 165, 112.71 165, 0 165 M425 165 C292.72 165, 160.44 165, 0 165 M0 165 C0 124.96, 0 84.92, 0 0 M0 165 C0 130.07, 0 95.13, 0 0" stroke="#2758aa" stroke-width="2" fill="none" /></g><g stroke-linecap="round" transform="translate(1014 589) rotate(0 212.5 82.5)"><path d="M0 0 L425 0 L425 165 L0 165" stroke="none" stroke-width="0" fill="#eaf8f4" /><path d="M0 0 C135.17 0, 270.34 0, 425 0 M0 0 C108.6 0, 217.21 0, 425 0 M425 0 C425 63.91, 425 127.82, 425 165 M425 0 C425 34.21, 425 68.42, 425 165 M425 165 C294.33 165, 163.66 165, 0 165 M425 165 C286.52 165, 148.04 165, 0 165 M0 165 C0 106, 0 47, 0 0 M0 165 C0 120.41, 0 75.82, 0 0" stroke="#18786d" stroke-width="2" fill="none" /></g><g stroke-linecap="round" transform="translate(1494 589) rotate(0 212.5 82.5)"><path d="M0 0 L425 0 L425 165 L0 165" stroke="none" stroke-width="0" fill="#eaf8f4" /><path d="M0 0 C159.2 0, 318.39 0, 425 0 M0 0 C91.62 0, 183.24 0, 425 0 M425 0 C425 38.98, 425 77.95, 425 165 M425 0 C425 39.68, 425 79.37, 425 165 M425 165 C302.91 165, 180.82 165, 0 165 M425 165 C260.25 165, 95.5 165, 0 165 M0 165 C0 124.81, 0 84.63, 0 0 M0 165 C0 125.72, 0 86.44, 0 0" stroke="#18786d" stroke-width="2" fill="none" /></g><g stroke-linecap="round" transform="translate(54 964) rotate(0 212.5 72.5)"><path d="M0 0 L425 0 L425 145 L0 145" stroke="none" stroke-width="0" fill="#fff5df" /><path d="M0 0 C124.46 0, 248.93 0, 425 0 M425 0 C425 35.71, 425 71.42, 425 145 M425 145 C330.6 145, 236.19 145, 0 145 M0 145 C0 98.08, 0 51.16, 0 0" stroke="#9b650c" stroke-width="2.5" fill="none" stroke-dasharray="8 10" /></g><g stroke-linecap="round" transform="translate(534 964) rotate(0 212.5 72.5)"><path d="M0 0 L425 0 L425 145 L0 145" stroke="none" stroke-width="0" fill="#fff5df" /><path d="M0 0 C118.84 0, 237.69 0, 425 0 M425 0 C425 35.36, 425 70.73, 425 145 M425 145 C323.52 145, 222.04 145, 0 145 M0 145 C0 110.42, 0 75.85, 0 0" stroke="#9b650c" stroke-width="2.5" fill="none" stroke-dasharray="8 10" /></g><g stroke-linecap="round" transform="translate(1014 964) rotate(0 212.5 72.5)"><path d="M0 0 L425 0 L425 145 L0 145" stroke="none" stroke-width="0" fill="#fff5df" /><path d="M0 0 C120.88 0, 241.76 0, 425 0 M425 0 C425 44.55, 425 89.11, 425 145 M425 145 C333.47 145, 241.93 145, 0 145 M0 145 C0 98.78, 0 52.56, 0 0" stroke="#9b650c" stroke-width="2.5" fill="none" stroke-dasharray="8 10" /></g><g stroke-linecap="round" transform="translate(1494 964) rotate(0 212.5 72.5)"><path d="M0 0 L425 0 L425 145 L0 145" stroke="none" stroke-width="0" fill="#fff5df" /><path d="M0 0 C137.88 0, 275.76 0, 425 0 M425 0 C425 43.89, 425 87.77, 425 145 M425 145 C264.11 145, 103.21 145, 0 145 M0 145 C0 102.17, 0 59.35, 0 0" stroke="#9b650c" stroke-width="2.5" fill="none" stroke-dasharray="8 10" /></g><g stroke-linecap="round" transform="translate(54 1239) rotate(0 300 77.5)"><path d="M0 0 L600 0 L600 155 L0 155" stroke="none" stroke-width="0" fill="#f4f6f8" /><path d="M0 0 C164.52 0, 329.05 0, 600 0 M600 0 C600 50.36, 600 100.72, 600 155 M600 155 C380.51 155, 161.01 155, 0 155 M0 155 C0 100.34, 0 45.67, 0 0" stroke="#687587" stroke-width="2.5" fill="none" stroke-dasharray="8 10" /></g><g stroke-linecap="round" transform="translate(714 1239) rotate(0 300 77.5)"><path d="M0 0 L600 0 L600 155 L0 155" stroke="none" stroke-width="0" fill="#f4f6f8" /><path d="M0 0 C190.6 0, 381.2 0, 600 0 M600 0 C600 43.76, 600 87.52, 600 155 M600 155 C479.26 155, 358.52 155, 0 155 M0 155 C0 119.22, 0 83.43, 0 0" stroke="#687587" stroke-width="2.5" fill="none" stroke-dasharray="8 10" /></g><g stroke-linecap="round" transform="translate(1374 1239) rotate(0 272.5 77.5)"><path d="M0 0 L545 0 L545 155 L0 155" stroke="none" stroke-width="0" fill="#f3f0ff" /><path d="M0 0 C203.03 0, 406.05 0, 545 0 M545 0 C545 35.48, 545 70.96, 545 155 M545 155 C395.21 155, 245.42 155, 0 155 M0 155 C0 108.68, 0 62.37, 0 0" stroke="#6350a5" stroke-width="2.5" fill="none" stroke-dasharray="8 10" /></g><g stroke-linecap="round" transform="translate(54 1564) rotate(0 300 77.5)"><path d="M0 0 L600 0 L600 155 L0 155" stroke="none" stroke-width="0" fill="#f4f6f8" /><path d="M0 0 C200.49 0, 400.99 0, 600 0 M0 0 C156.26 0, 312.53 0, 600 0 M600 0 C600 57.54, 600 115.07, 600 155 M600 0 C600 43.52, 600 87.05, 600 155 M600 155 C385.92 155, 171.84 155, 0 155 M600 155 C363.76 155, 127.51 155, 0 155 M0 155 C0 118.65, 0 82.3, 0 0 M0 155 C0 101.28, 0 47.57, 0 0" stroke="#687587" stroke-width="2" fill="none" /></g><g stroke-linecap="round" transform="translate(714 1564) rotate(0 300 77.5)"><path d="M0 0 L600 0 L600 155 L0 155" stroke="none" stroke-width="0" fill="#f4f6f8" /><path d="M0 0 C208.2 0, 416.4 0, 600 0 M600 0 C600 55.08, 600 110.15, 600 155 M600 155 C403.4 155, 206.81 155, 0 155 M0 155 C0 106.74, 0 58.49, 0 0" stroke="#687587" stroke-width="2.5" fill="none" stroke-dasharray="8 10" /></g><g stroke-linecap="round"><g transform="translate(479 394) rotate(0 27.5 0)"><path d="M0 0 C11.32 0, 22.65 0, 55 0 M0 0 C16.26 0, 32.51 0, 55 0" stroke="#2758aa" stroke-width="2" fill="none" /></g><g transform="translate(479 394) rotate(0 27.5 0)"><path d="M31.51 8.55 C36.34 6.79, 41.18 5.03, 55 0 M31.51 8.55 C38.45 6.02, 45.39 3.5, 55 0" stroke="#2758aa" stroke-width="2" fill="none" /></g><g transform="translate(479 394) rotate(0 27.5 0)"><path d="M31.51 -8.55 C36.34 -6.79, 41.18 -5.03, 55 0 M31.51 -8.55 C38.45 -6.02, 45.39 -3.5, 55 0" stroke="#2758aa" stroke-width="2" fill="none" /></g></g><mask /><g stroke-linecap="round"><g transform="translate(746 474) rotate(0 -240 57.5)"><path d="M0 0 C0 24.84, 0 49.68, 0 65 M0 0 C0 20.68, 0 41.37, 0 65 M0 65 C-181.18 65, -362.36 65, -480 65 M0 65 C-157.12 65, -314.24 65, -480 65 M-480 65 C-480 77.77, -480 90.54, -480 115 M-480 65 C-480 76.37, -480 87.74, -480 115" stroke="#2758aa" stroke-width="2" fill="none" /></g><g transform="translate(746 474) rotate(0 -240 57.5)"><path d="M-488.55 91.51 C-485.28 100.49, -482.02 109.46, -480 115 M-488.55 91.51 C-485.83 98.98, -483.11 106.46, -480 115" stroke="#2758aa" stroke-width="2" fill="none" /></g><g transform="translate(746 474) rotate(0 -240 57.5)"><path d="M-471.45 91.51 C-474.72 100.49, -477.98 109.46, -480 115 M-471.45 91.51 C-474.17 98.98, -476.89 106.46, -480 115" stroke="#2758aa" stroke-width="2" fill="none" /></g></g><mask /><g stroke-linecap="round"><g transform="translate(1226 474) rotate(0 -240 32.5)"><path d="M0 0 C0 19.15, 0 38.29, 0 65 M0 65 C-136 65, -272 65, -480 65" stroke="#6350a5" stroke-width="2.5" fill="none" stroke-dasharray="8 10" /></g></g><mask /><g stroke-linecap="round"><g transform="translate(1706 474) rotate(0 -240 32.5)"><path d="M0 0 C0 21.56, 0 43.13, 0 65 M0 65 C-127.12 65, -254.24 65, -480 65" stroke="#6350a5" stroke-width="2.5" fill="none" stroke-dasharray="8 10" /></g></g><mask /><g stroke-linecap="round"><g transform="translate(1706 539) rotate(0 0 25)"><path d="M0 0 C0 12.9, 0 25.8, 0 50 M0 0 C0 12.56, 0 25.12, 0 50" stroke="#6350a5" stroke-width="2" fill="none" /></g><g transform="translate(1706 539) rotate(0 0 25)"><path d="M-8.55 26.51 C-6.34 32.57, -4.14 38.63, 0 50 M-8.55 26.51 C-6.4 32.41, -4.25 38.31, 0 50" stroke="#6350a5" stroke-width="2" fill="none" /></g><g transform="translate(1706 539) rotate(0 0 25)"><path d="M8.55 26.51 C6.34 32.57, 4.14 38.63, 0 50 M8.55 26.51 C6.4 32.41, 4.25 38.31, 0 50" stroke="#6350a5" stroke-width="2" fill="none" /></g></g><mask /><g stroke-linecap="round"><g transform="translate(479 669) rotate(0 27.5 0)"><path d="M0 0 C16.14 0, 32.27 0, 55 0 M0 0 C20.16 0, 40.33 0, 55 0" stroke="#18786d" stroke-width="2" fill="none" /></g><g transform="translate(479 669) rotate(0 27.5 0)"><path d="M31.51 8.55 C38.4 6.04, 45.29 3.53, 55 0 M31.51 8.55 C40.12 5.42, 48.73 2.28, 55 0" stroke="#18786d" stroke-width="2" fill="none" /></g><g transform="translate(479 669) rotate(0 27.5 0)"><path d="M31.51 -8.55 C38.4 -6.04, 45.29 -3.53, 55 0 M31.51 -8.55 C40.12 -5.42, 48.73 -2.28, 55 0" stroke="#18786d" stroke-width="2" fill="none" /></g></g><mask /><g stroke-linecap="round"><g transform="translate(266 754) rotate(0 480 32.5)"><path d="M0 0 C0 23.6, 0 47.2, 0 65 M0 0 C0 15.73, 0 31.45, 0 65 M0 65 C217.06 65, 434.13 65, 960 65 M0 65 C291.41 65, 582.83 65, 960 65 M960 65 C960 46.92, 960 28.84, 960 0 M960 65 C960 48.86, 960 32.72, 960 0" stroke="#18786d" stroke-width="2" fill="none" /></g><g transform="translate(266 754) rotate(0 480 32.5)"><path d="M968.55 23.49 C965.45 14.96, 962.34 6.43, 960 0 M968.55 23.49 C966.48 17.81, 964.41 12.12, 960 0" stroke="#18786d" stroke-width="2" fill="none" /></g><g transform="translate(266 754) rotate(0 480 32.5)"><path d="M951.45 23.49 C954.55 14.96, 957.66 6.43, 960 0 M951.45 23.49 C953.52 17.81, 955.59 12.12, 960 0" stroke="#18786d" stroke-width="2" fill="none" /></g></g><mask /><g stroke-linecap="round"><g transform="translate(479 1039) rotate(0 27.5 0)"><path d="M0 0 C16.56 0, 33.12 0, 55 0 M0 0 C14.31 0, 28.62 0, 55 0" stroke="#9b650c" stroke-width="2" fill="none" /></g><g transform="translate(479 1039) rotate(0 27.5 0)"><path d="M31.51 8.55 C38.58 5.98, 45.65 3.4, 55 0 M31.51 8.55 C37.62 6.33, 43.73 4.1, 55 0" stroke="#9b650c" stroke-width="2" fill="none" /></g><g transform="translate(479 1039) rotate(0 27.5 0)"><path d="M31.51 -8.55 C38.58 -5.98, 45.65 -3.4, 55 0 M31.51 -8.55 C37.62 -6.33, 43.73 -4.1, 55 0" stroke="#9b650c" stroke-width="2" fill="none" /></g></g><mask /><g stroke-linecap="round"><g transform="translate(959 1039) rotate(0 27.5 0)"><path d="M0 0 C11.9 0, 23.8 0, 55 0 M0 0 C20.32 0, 40.64 0, 55 0" stroke="#9b650c" stroke-width="2" fill="none" /></g><g transform="translate(959 1039) rotate(0 27.5 0)"><path d="M31.51 8.55 C36.59 6.7, 41.68 4.85, 55 0 M31.51 8.55 C40.19 5.39, 48.86 2.23, 55 0" stroke="#9b650c" stroke-width="2" fill="none" /></g><g transform="translate(959 1039) rotate(0 27.5 0)"><path d="M31.51 -8.55 C36.59 -6.7, 41.68 -4.85, 55 0 M31.51 -8.55 C40.19 -5.39, 48.86 -2.23, 55 0" stroke="#9b650c" stroke-width="2" fill="none" /></g></g><mask /><g stroke-linecap="round"><g transform="translate(1439 1039) rotate(0 27.5 0)"><path d="M0 0 C11.38 0, 22.76 0, 55 0 M0 0 C17.02 0, 34.04 0, 55 0" stroke="#9b650c" stroke-width="2" fill="none" /></g><g transform="translate(1439 1039) rotate(0 27.5 0)"><path d="M31.51 8.55 C36.37 6.78, 41.23 5.01, 55 0 M31.51 8.55 C38.78 5.9, 46.05 3.26, 55 0" stroke="#9b650c" stroke-width="2" fill="none" /></g><g transform="translate(1439 1039) rotate(0 27.5 0)"><path d="M31.51 -8.55 C36.37 -6.78, 41.23 -5.01, 55 0 M31.51 -8.55 C38.78 -5.9, 46.05 -3.26, 55 0" stroke="#9b650c" stroke-width="2" fill="none" /></g></g><mask /><g stroke-linecap="round"><g transform="translate(1226 964) rotate(0 -240 -105)"><path d="M0 0 C0 -35.71, 0 -71.42, 0 -100 M0 0 C0 -33.27, 0 -66.55, 0 -100 M0 -100 C-187.22 -100, -374.43 -100, -480 -100 M0 -100 C-143.35 -100, -286.71 -100, -480 -100 M-480 -100 C-480 -122.2, -480 -144.4, -480 -210 M-480 -100 C-480 -133.65, -480 -167.3, -480 -210" stroke="#9b650c" stroke-width="2" fill="none" /></g><g transform="translate(1226 964) rotate(0 -240 -105)"><path d="M-471.45 -186.51 C-474.5 -194.9, -477.56 -203.29, -480 -210 M-471.45 -186.51 C-474.29 -194.32, -477.14 -202.14, -480 -210" stroke="#9b650c" stroke-width="2" fill="none" /></g><g transform="translate(1226 964) rotate(0 -240 -105)"><path d="M-488.55 -186.51 C-485.5 -194.9, -482.44 -203.29, -480 -210 M-488.55 -186.51 C-485.71 -194.32, -482.86 -202.14, -480 -210" stroke="#9b650c" stroke-width="2" fill="none" /></g></g><mask /><g stroke-linecap="round"><g transform="translate(1706 964) rotate(0 -188.5 -105)"><path d="M0 0 C0 -32.29, 0 -64.58, 0 -130 M0 0 C0 -41.57, 0 -83.14, 0 -130 M0 -130 C-96.04 -130, -192.09 -130, -377 -130 M0 -130 C-141.25 -130, -282.5 -130, -377 -130 M-377 -130 C-377 -146.06, -377 -162.13, -377 -210 M-377 -130 C-377 -146.13, -377 -162.26, -377 -210" stroke="#9b650c" stroke-width="2" fill="none" /></g><g transform="translate(1706 964) rotate(0 -188.5 -105)"><path d="M-368.45 -186.51 C-370.57 -192.34, -372.7 -198.18, -377 -210 M-368.45 -186.51 C-371.18 -194.02, -373.92 -201.53, -377 -210" stroke="#9b650c" stroke-width="2" fill="none" /></g><g transform="translate(1706 964) rotate(0 -188.5 -105)"><path d="M-385.55 -186.51 C-383.43 -192.34, -381.3 -198.18, -377 -210 M-385.55 -186.51 C-382.82 -194.02, -380.08 -201.53, -377 -210" stroke="#9b650c" stroke-width="2" fill="none" /></g></g><mask /><g transform="translate(29 24) rotate(0 960 25)"><text x="0" y="35.80078125" font-family="Helvetica, Segoe UI Emoji" font-size="40px" fill="#17233b" text-anchor="start" style="white-space: pre;" direction="ltr" dominant-baseline="alphabetic">04  Container and deployment boundaries</text></g><g transform="translate(29 89) rotate(0 960 14.375)"><text x="0" y="20.58544921875" font-family="Helvetica, Segoe UI Emoji" font-size="23px" fill="#536176" text-anchor="start" style="white-space: pre;" direction="ltr" dominant-baseline="alphabetic">Selected target packaging · three inference routes, GCS bucket, role-isolated checkpoints and one-command ingestion. Current Compose differs as shown below.</text></g><g transform="translate(54 206) rotate(0 885 15)"><text x="0" y="21.48046875" font-family="Helvetica, Segoe UI Emoji" font-size="24px" fill="#536176" text-anchor="start" style="white-space: pre;" direction="ltr" dominant-baseline="alphabetic">DOCKER HOST / PRIVATE SERVICE NETWORK · grouping, not a container</text></g><g transform="translate(54 262) rotate(0 600 15.625)"><text x="0" y="22.37548828125" font-family="Helvetica, Segoe UI Emoji" font-size="25px" fill="#2758aa" text-anchor="start" style="white-space: pre;" direction="ltr" dominant-baseline="alphabetic">PERSISTENT SERVICES</text></g><g transform="translate(74 329) rotate(0 192.5 11.25)"><text x="0" y="16.1103515625" font-family="Helvetica, Segoe UI Emoji" font-size="18px" fill="#2758aa" text-anchor="start" style="white-space: pre;" direction="ltr" dominant-baseline="alphabetic">DOCKER CONTAINER</text></g><g transform="translate(74 362) rotate(0 192.5 16.25)"><text x="0" y="23.2705078125" font-family="Helvetica, Segoe UI Emoji" font-size="26px" fill="#17233b" text-anchor="start" style="white-space: pre;" direction="ltr" dominant-baseline="alphabetic">UI</text></g><g transform="translate(74 400) rotate(0 192.5 13.125)"><text x="0" y="18.79541015625" font-family="Helvetica, Segoe UI Emoji" font-size="21px" fill="#17233b" text-anchor="start" style="white-space: pre;" direction="ltr" dominant-baseline="alphabetic">CopilotKit / AG-UI</text></g><g transform="translate(74 442) rotate(0 192.5 11.25)"><text x="0" y="16.1103515625" font-family="Helvetica, Segoe UI Emoji" font-size="18px" fill="#2758aa" text-anchor="start" style="white-space: pre;" direction="ltr" dominant-baseline="alphabetic">Container exists in Compose</text></g><g transform="translate(554 329) rotate(0 192.5 11.25)"><text x="0" y="16.1103515625" font-family="Helvetica, Segoe UI Emoji" font-size="18px" fill="#6350a5" text-anchor="start" style="white-space: pre;" direction="ltr" dominant-baseline="alphabetic">DOCKER CONTAINER</text></g><g transform="translate(554 362) rotate(0 192.5 16.25)"><text x="0" y="23.2705078125" font-family="Helvetica, Segoe UI Emoji" font-size="26px" fill="#17233b" text-anchor="start" style="white-space: pre;" direction="ltr" dominant-baseline="alphabetic">Knowledge Assistant</text></g><g transform="translate(554 400) rotate(0 192.5 13.125)"><text x="0" y="18.79541015625" font-family="Helvetica, Segoe UI Emoji" font-size="21px" fill="#17233b" text-anchor="start" style="white-space: pre;" direction="ltr" dominant-baseline="alphabetic">Coordination + Deep Agent</text></g><g transform="translate(554 442) rotate(0 192.5 11.25)"><text x="0" y="16.1103515625" font-family="Helvetica, Segoe UI Emoji" font-size="18px" fill="#6350a5" text-anchor="start" style="white-space: pre;" direction="ltr" dominant-baseline="alphabetic">Behavior exists · packaging target</text></g><g transform="translate(1034 329) rotate(0 192.5 11.25)"><text x="0" y="16.1103515625" font-family="Helvetica, Segoe UI Emoji" font-size="18px" fill="#6350a5" text-anchor="start" style="white-space: pre;" direction="ltr" dominant-baseline="alphabetic">DOCKER CONTAINER</text></g><g transform="translate(1034 362) rotate(0 192.5 16.25)"><text x="0" y="23.2705078125" font-family="Helvetica, Segoe UI Emoji" font-size="26px" fill="#17233b" text-anchor="start" style="white-space: pre;" direction="ltr" dominant-baseline="alphabetic">Research Assistant</text></g><g transform="translate(1034 400) rotate(0 192.5 13.125)"><text x="0" y="18.79541015625" font-family="Helvetica, Segoe UI Emoji" font-size="21px" fill="#17233b" text-anchor="start" style="white-space: pre;" direction="ltr" dominant-baseline="alphabetic">Coordination + Deep Agent</text></g><g transform="translate(1034 442) rotate(0 192.5 11.25)"><text x="0" y="16.1103515625" font-family="Helvetica, Segoe UI Emoji" font-size="18px" fill="#6350a5" text-anchor="start" style="white-space: pre;" direction="ltr" dominant-baseline="alphabetic">Accepted scope; runtime planned</text></g><g transform="translate(1514 329) rotate(0 192.5 11.25)"><text x="0" y="16.1103515625" font-family="Helvetica, Segoe UI Emoji" font-size="18px" fill="#6350a5" text-anchor="start" style="white-space: pre;" direction="ltr" dominant-baseline="alphabetic">DOCKER CONTAINER</text></g><g transform="translate(1514 362) rotate(0 192.5 16.25)"><text x="0" y="23.2705078125" font-family="Helvetica, Segoe UI Emoji" font-size="26px" fill="#17233b" text-anchor="start" style="white-space: pre;" direction="ltr" dominant-baseline="alphabetic">Interview Analyst</text></g><g transform="translate(1514 400) rotate(0 192.5 13.125)"><text x="0" y="18.79541015625" font-family="Helvetica, Segoe UI Emoji" font-size="21px" fill="#17233b" text-anchor="start" style="white-space: pre;" direction="ltr" dominant-baseline="alphabetic">Coordination + Deep Agent</text></g><g transform="translate(1514 442) rotate(0 192.5 11.25)"><text x="0" y="16.1103515625" font-family="Helvetica, Segoe UI Emoji" font-size="18px" fill="#6350a5" text-anchor="start" style="white-space: pre;" direction="ltr" dominant-baseline="alphabetic">Accepted scope; runtime planned</text></g><g transform="translate(534 269) rotate(0 675 13.125)"><text x="0" y="18.79541015625" font-family="Helvetica, Segoe UI Emoji" font-size="21px" fill="#6350a5" text-anchor="start" style="white-space: pre;" direction="ltr" dominant-baseline="alphabetic">Each enabled role has its own runtime with automatic balanced routing. UI routing to additional roles is planned.</text></g><g transform="translate(74 604) rotate(0 192.5 11.25)"><text x="0" y="16.1103515625" font-family="Helvetica, Segoe UI Emoji" font-size="18px" fill="#2758aa" text-anchor="start" style="white-space: pre;" direction="ltr" dominant-baseline="alphabetic">DOCKER CONTAINER</text></g><g transform="translate(74 637) rotate(0 192.5 16.25)"><text x="0" y="23.2705078125" font-family="Helvetica, Segoe UI Emoji" font-size="26px" fill="#17233b" text-anchor="start" style="white-space: pre;" direction="ltr" dominant-baseline="alphabetic">Retrieval MCP</text></g><g transform="translate(74 675) rotate(0 192.5 13.125)"><text x="0" y="18.79541015625" font-family="Helvetica, Segoe UI Emoji" font-size="21px" fill="#17233b" text-anchor="start" style="white-space: pre;" direction="ltr" dominant-baseline="alphabetic">Shared search / read</text></g><g transform="translate(74 722) rotate(0 192.5 11.25)"><text x="0" y="16.1103515625" font-family="Helvetica, Segoe UI Emoji" font-size="18px" fill="#2758aa" text-anchor="start" style="white-space: pre;" direction="ltr" dominant-baseline="alphabetic">Container exists in Compose</text></g><g transform="translate(554 604) rotate(0 192.5 11.25)"><text x="0" y="16.1103515625" font-family="Helvetica, Segoe UI Emoji" font-size="18px" fill="#2758aa" text-anchor="start" style="white-space: pre;" direction="ltr" dominant-baseline="alphabetic">DOCKER CONTAINER</text></g><g transform="translate(554 637) rotate(0 192.5 16.25)"><text x="0" y="23.2705078125" font-family="Helvetica, Segoe UI Emoji" font-size="26px" fill="#17233b" text-anchor="start" style="white-space: pre;" direction="ltr" dominant-baseline="alphabetic">Shared BGE server</text></g><g transform="translate(554 675) rotate(0 192.5 13.125)"><text x="0" y="18.79541015625" font-family="Helvetica, Segoe UI Emoji" font-size="21px" fill="#17233b" text-anchor="start" style="white-space: pre;" direction="ltr" dominant-baseline="alphabetic">Shared query + document encoding</text></g><g transform="translate(554 722) rotate(0 155 11.5)"><text x="0" y="16.1103515625" font-family="Helvetica, Segoe UI Emoji" font-size="18px" fill="#2758aa" text-anchor="start" style="white-space: pre;" direction="ltr" dominant-baseline="alphabetic">Container exists in Compose</text></g><g transform="translate(1034 604) rotate(0 192.5 11.25)"><text x="0" y="16.1103515625" font-family="Helvetica, Segoe UI Emoji" font-size="18px" fill="#18786d" text-anchor="start" style="white-space: pre;" direction="ltr" dominant-baseline="alphabetic">DOCKER CONTAINER</text></g><g transform="translate(1034 637) rotate(0 192.5 16.25)"><text x="0" y="23.2705078125" font-family="Helvetica, Segoe UI Emoji" font-size="26px" fill="#17233b" text-anchor="start" style="white-space: pre;" direction="ltr" dominant-baseline="alphabetic">Qdrant</text></g><g transform="translate(1034 675) rotate(0 192.5 13.125)"><text x="0" y="18.79541015625" font-family="Helvetica, Segoe UI Emoji" font-size="21px" fill="#17233b" text-anchor="start" style="white-space: pre;" direction="ltr" dominant-baseline="alphabetic">Dense + lexical search index</text></g><g transform="translate(1034 722) rotate(0 192.5 11.25)"><text x="0" y="16.1103515625" font-family="Helvetica, Segoe UI Emoji" font-size="18px" fill="#18786d" text-anchor="start" style="white-space: pre;" direction="ltr" dominant-baseline="alphabetic">Container exists in Compose</text></g><g transform="translate(1514 604) rotate(0 192.5 11.25)"><text x="0" y="16.1103515625" font-family="Helvetica, Segoe UI Emoji" font-size="18px" fill="#18786d" text-anchor="start" style="white-space: pre;" direction="ltr" dominant-baseline="alphabetic">DOCKER CONTAINER</text></g><g transform="translate(1514 637) rotate(0 192.5 16.25)"><text x="0" y="23.2705078125" font-family="Helvetica, Segoe UI Emoji" font-size="26px" fill="#17233b" text-anchor="start" style="white-space: pre;" direction="ltr" dominant-baseline="alphabetic">PostgreSQL</text></g><g transform="translate(1514 675) rotate(0 192.5 13.125)"><text x="0" y="18.79541015625" font-family="Helvetica, Segoe UI Emoji" font-size="21px" fill="#17233b" text-anchor="start" style="white-space: pre;" direction="ltr" dominant-baseline="alphabetic">Conversation checkpoints</text></g><g transform="translate(1514 722) rotate(0 192.5 11.25)"><text x="0" y="16.1103515625" font-family="Helvetica, Segoe UI Emoji" font-size="18px" fill="#18786d" text-anchor="start" style="white-space: pre;" direction="ltr" dominant-baseline="alphabetic">Container exists in Compose</text></g><g transform="translate(69 505) rotate(0 222.5 12.5)"><text x="0" y="17.900390625" font-family="Helvetica, Segoe UI Emoji" font-size="20px" fill="#536176" text-anchor="start" style="white-space: pre;" direction="ltr" dominant-baseline="alphabetic">all roles: MCP search / read</text></g><g transform="translate(1729 542) rotate(0 92.5 12.5)"><text x="0" y="17.900390625" font-family="Helvetica, Segoe UI Emoji" font-size="20px" fill="#6350a5" text-anchor="start" style="white-space: pre;" direction="ltr" dominant-baseline="alphabetic">checkpoints</text></g><g transform="translate(1009 781) rotate(0 105 12.5)"><text x="0" y="17.900390625" font-family="Helvetica, Segoe UI Emoji" font-size="20px" fill="#18786d" text-anchor="start" style="white-space: pre;" direction="ltr" dominant-baseline="alphabetic">search index</text></g><g transform="translate(54 902) rotate(0 675 15.625)"><text x="0" y="22.37548828125" font-family="Helvetica, Segoe UI Emoji" font-size="25px" fill="#9b650c" text-anchor="start" style="white-space: pre;" direction="ltr" dominant-baseline="alphabetic">TEMPORARY JOB CONTAINERS · manual run order</text></g><g transform="translate(74 979) rotate(0 192.5 11.25)"><text x="0" y="16.1103515625" font-family="Helvetica, Segoe UI Emoji" font-size="18px" fill="#9b650c" text-anchor="start" style="white-space: pre;" direction="ltr" dominant-baseline="alphabetic">JOB CONTAINER · MANUAL</text></g><g transform="translate(74 1012) rotate(0 192.5 16.25)"><text x="0" y="23.2705078125" font-family="Helvetica, Segoe UI Emoji" font-size="26px" fill="#17233b" text-anchor="start" style="white-space: pre;" direction="ltr" dominant-baseline="alphabetic">1  Conversion</text></g><g transform="translate(74 1050) rotate(0 192.5 13.125)"><text x="0" y="18.79541015625" font-family="Helvetica, Segoe UI Emoji" font-size="21px" fill="#17233b" text-anchor="start" style="white-space: pre;" direction="ltr" dominant-baseline="alphabetic">Docling</text></g><g transform="translate(554 979) rotate(0 192.5 11.25)"><text x="0" y="16.1103515625" font-family="Helvetica, Segoe UI Emoji" font-size="18px" fill="#9b650c" text-anchor="start" style="white-space: pre;" direction="ltr" dominant-baseline="alphabetic">JOB CONTAINER · MANUAL</text></g><g transform="translate(554 1012) rotate(0 192.5 16.25)"><text x="0" y="23.2705078125" font-family="Helvetica, Segoe UI Emoji" font-size="26px" fill="#17233b" text-anchor="start" style="white-space: pre;" direction="ltr" dominant-baseline="alphabetic">2  Preparation</text></g><g transform="translate(554 1050) rotate(0 192.5 13.125)"><text x="0" y="18.79541015625" font-family="Helvetica, Segoe UI Emoji" font-size="21px" fill="#17233b" text-anchor="start" style="white-space: pre;" direction="ltr" dominant-baseline="alphabetic">Normalize / chunk</text></g><g transform="translate(1034 979) rotate(0 192.5 11.25)"><text x="0" y="16.1103515625" font-family="Helvetica, Segoe UI Emoji" font-size="18px" fill="#9b650c" text-anchor="start" style="white-space: pre;" direction="ltr" dominant-baseline="alphabetic">JOB CONTAINER · MANUAL</text></g><g transform="translate(1034 1012) rotate(0 192.5 16.25)"><text x="0" y="23.2705078125" font-family="Helvetica, Segoe UI Emoji" font-size="26px" fill="#17233b" text-anchor="start" style="white-space: pre;" direction="ltr" dominant-baseline="alphabetic">3  Batch embedding</text></g><g transform="translate(1034 1050) rotate(0 192.5 13.125)"><text x="0" y="18.79541015625" font-family="Helvetica, Segoe UI Emoji" font-size="21px" fill="#17233b" text-anchor="start" style="white-space: pre;" direction="ltr" dominant-baseline="alphabetic">Calls shared BGE</text></g><g transform="translate(1514 979) rotate(0 192.5 11.25)"><text x="0" y="16.1103515625" font-family="Helvetica, Segoe UI Emoji" font-size="18px" fill="#9b650c" text-anchor="start" style="white-space: pre;" direction="ltr" dominant-baseline="alphabetic">JOB CONTAINER · MANUAL</text></g><g transform="translate(1514 1012) rotate(0 192.5 16.25)"><text x="0" y="23.2705078125" font-family="Helvetica, Segoe UI Emoji" font-size="26px" fill="#17233b" text-anchor="start" style="white-space: pre;" direction="ltr" dominant-baseline="alphabetic">4  Import / update</text></g><g transform="translate(1514 1050) rotate(0 192.5 13.125)"><text x="0" y="18.79541015625" font-family="Helvetica, Segoe UI Emoji" font-size="21px" fill="#17233b" text-anchor="start" style="white-space: pre;" direction="ltr" dominant-baseline="alphabetic">Writes Qdrant</text></g><g transform="translate(759 834) rotate(0 225 12.5)"><text x="0" y="17.900390625" font-family="Helvetica, Segoe UI Emoji" font-size="20px" fill="#9b650c" text-anchor="start" style="white-space: pre;" direction="ltr" dominant-baseline="alphabetic">embed chunks · bounded load</text></g><g transform="translate(1729 847) rotate(0 90 12.5)"><text x="0" y="17.900390625" font-family="Helvetica, Segoe UI Emoji" font-size="20px" fill="#9b650c" text-anchor="start" style="white-space: pre;" direction="ltr" dominant-baseline="alphabetic">write points</text></g><g transform="translate(54 1179) rotate(0 885 15)"><text x="0" y="21.48046875" font-family="Helvetica, Segoe UI Emoji" font-size="24px" fill="#536176" text-anchor="start" style="white-space: pre;" direction="ltr" dominant-baseline="alphabetic">MOUNTS AND OPTIONAL LOCAL INFERENCE</text></g><g transform="translate(74 1254) rotate(0 280 11.25)"><text x="0" y="16.1103515625" font-family="Helvetica, Segoe UI Emoji" font-size="18px" fill="#687587" text-anchor="start" style="white-space: pre;" direction="ltr" dominant-baseline="alphabetic">STORAGE · NO CONTAINER</text></g><g transform="translate(74 1287) rotate(0 280 16.25)"><text x="0" y="23.2705078125" font-family="Helvetica, Segoe UI Emoji" font-size="26px" fill="#17233b" text-anchor="start" style="white-space: pre;" direction="ltr" dominant-baseline="alphabetic">Local filesystem</text></g><g transform="translate(74 1325) rotate(0 280 26.25)"><text x="0" y="18.79541015625" font-family="Helvetica, Segoe UI Emoji" font-size="21px" fill="#17233b" text-anchor="start" style="white-space: pre;" direction="ltr" dominant-baseline="alphabetic">Implemented development behavior;</text><text x="0" y="45.04541015625" font-family="Helvetica, Segoe UI Emoji" font-size="21px" fill="#17233b" text-anchor="start" style="white-space: pre;" direction="ltr" dominant-baseline="alphabetic">not the selected production target</text></g><g transform="translate(734 1254) rotate(0 280 11.25)"><text x="0" y="16.1103515625" font-family="Helvetica, Segoe UI Emoji" font-size="18px" fill="#687587" text-anchor="start" style="white-space: pre;" direction="ltr" dominant-baseline="alphabetic">STORAGE · NO CONTAINER</text></g><g transform="translate(734 1287) rotate(0 280 16.25)"><text x="0" y="23.2705078125" font-family="Helvetica, Segoe UI Emoji" font-size="26px" fill="#17233b" text-anchor="start" style="white-space: pre;" direction="ltr" dominant-baseline="alphabetic">Database volumes</text></g><g transform="translate(734 1325) rotate(0 280 13.125)"><text x="0" y="18.79541015625" font-family="Helvetica, Segoe UI Emoji" font-size="21px" fill="#17233b" text-anchor="start" style="white-space: pre;" direction="ltr" dominant-baseline="alphabetic">Separate Qdrant and PostgreSQL data volumes</text></g><g transform="translate(1394 1254) rotate(0 252.5 11.25)"><text x="0" y="16.1103515625" font-family="Helvetica, Segoe UI Emoji" font-size="18px" fill="#6350a5" text-anchor="start" style="white-space: pre;" direction="ltr" dominant-baseline="alphabetic">DOCKER CONTAINER · OPTIONAL</text></g><g transform="translate(1394 1287) rotate(0 252.5 16.25)"><text x="0" y="23.2705078125" font-family="Helvetica, Segoe UI Emoji" font-size="26px" fill="#17233b" text-anchor="start" style="white-space: pre;" direction="ltr" dominant-baseline="alphabetic">Local Ollama</text></g><g transform="translate(1394 1325) rotate(0 252.5 13.125)"><text x="0" y="18.79541015625" font-family="Helvetica, Segoe UI Emoji" font-size="21px" fill="#17233b" text-anchor="start" style="white-space: pre;" direction="ltr" dominant-baseline="alphabetic">Optional inference provider + model volume</text></g><g transform="translate(54 1439) rotate(0 895 13.125)"><text x="0" y="18.79541015625" font-family="Helvetica, Segoe UI Emoji" font-size="21px" fill="#536176" text-anchor="start" style="white-space: pre;" direction="ltr" dominant-baseline="alphabetic">Volumes hold persistent data; they are not Docker containers. One image can supply multiple independent containers.</text></g><g transform="translate(74 1579) rotate(0 280 11.25)"><text x="0" y="16.1103515625" font-family="Helvetica, Segoe UI Emoji" font-size="18px" fill="#687587" text-anchor="start" style="white-space: pre;" direction="ltr" dominant-baseline="alphabetic">EXTERNAL SERVICE</text></g><g transform="translate(74 1612) rotate(0 280 16.25)"><text x="0" y="23.2705078125" font-family="Helvetica, Segoe UI Emoji" font-size="26px" fill="#17233b" text-anchor="start" style="white-space: pre;" direction="ltr" dominant-baseline="alphabetic">External inference</text></g><g transform="translate(74 1647) rotate(0 280 33.75)"><text x="0" y="16.1103515625" font-family="Helvetica, Segoe UI Emoji" font-size="18px" fill="#17233b" text-anchor="start" style="white-space: pre;" direction="ltr" dominant-baseline="alphabetic">Ollama Cloud</text><text x="0" y="38.6103515625" font-family="Helvetica, Segoe UI Emoji" font-size="18px" fill="#17233b" text-anchor="start" style="white-space: pre;" direction="ltr" dominant-baseline="alphabetic">Fireworks.ai</text></g><g transform="translate(734 1579) rotate(0 280 11.25)"><text x="0" y="16.1103515625" font-family="Helvetica, Segoe UI Emoji" font-size="18px" fill="#687587" text-anchor="start" style="white-space: pre;" direction="ltr" dominant-baseline="alphabetic">STORAGE · NO CONTAINER</text></g><g transform="translate(734 1612) rotate(0 280 16.25)"><text x="0" y="23.2705078125" font-family="Helvetica, Segoe UI Emoji" font-size="26px" fill="#17233b" text-anchor="start" style="white-space: pre;" direction="ltr" dominant-baseline="alphabetic">Dedicated GCS bucket</text></g><g transform="translate(734 1647) rotate(0 199.5 22.5)"><text x="0" y="16.1103515625" font-family="Helvetica, Segoe UI Emoji" font-size="18px" fill="#17233b" text-anchor="start" style="white-space: pre;" direction="ltr" dominant-baseline="alphabetic">Prepared versions + release pointer</text><text x="0" y="38.6103515625" font-family="Helvetica, Segoe UI Emoji" font-size="18px" fill="#17233b" text-anchor="start" style="white-space: pre;" direction="ltr" dominant-baseline="alphabetic">Accessed through the GCS API</text></g><g transform="translate(1355 1579) rotate(0 280 71.875)"><text x="0" y="20.58544921875" font-family="Helvetica, Segoe UI Emoji" font-size="23px" fill="#536176" text-anchor="start" style="white-space: pre;" direction="ltr" dominant-baseline="alphabetic">ROLE RUNTIMES → INFERENCE</text><text x="0" y="49.33544921875" font-family="Helvetica, Segoe UI Emoji" font-size="23px" fill="#536176" text-anchor="start" style="white-space: pre;" direction="ltr" dominant-baseline="alphabetic">Automatic balanced routing</text><text x="0" y="78.08544921875" font-family="Helvetica, Segoe UI Emoji" font-size="23px" fill="#536176" text-anchor="start" style="white-space: pre;" direction="ltr" dominant-baseline="alphabetic">inside each role runtime.</text><text x="0" y="106.83544921875" font-family="Helvetica, Segoe UI Emoji" font-size="23px" fill="#536176" text-anchor="start" style="white-space: pre;" direction="ltr" dominant-baseline="alphabetic">Ollama Cloud · Fireworks.ai</text></g><g transform="translate(54 1759) rotate(0 175 16.5)"><text x="0" y="23.2705078125" font-family="Helvetica, Segoe UI Emoji" font-size="26px" fill="#17233b" text-anchor="start" style="white-space: pre;" direction="ltr" dominant-baseline="alphabetic">IMPLEMENTATION STATUS</text></g><g transform="translate(434 1762) rotate(0 536 55)"><text x="0" y="19.6904296875" font-family="Helvetica, Segoe UI Emoji" font-size="22px" fill="#536176" text-anchor="start" style="white-space: pre;" direction="ltr" dominant-baseline="alphabetic">Shared BGE, four job entrypoints and release activation: implemented in source</text><text x="0" y="47.1904296875" font-family="Helvetica, Segoe UI Emoji" font-size="22px" fill="#536176" text-anchor="start" style="white-space: pre;" direction="ltr" dominant-baseline="alphabetic">GCS storage + conditional release pointer: implemented; cloud trial pending</text><text x="0" y="74.6904296875" font-family="Helvetica, Segoe UI Emoji" font-size="22px" fill="#536176" text-anchor="start" style="white-space: pre;" direction="ltr" dominant-baseline="alphabetic">Research / Interview runtimes, role isolation and balanced routing: remaining</text><text x="0" y="102.1904296875" font-family="Helvetica, Segoe UI Emoji" font-size="22px" fill="#536176" text-anchor="start" style="white-space: pre;" direction="ltr" dominant-baseline="alphabetic">Container acceptance and rollout are tracked in the roadmap</text></g></svg>